# xmcd CD database file
# Copyright (C) 1995-1998 Ti Kan
#
# Track frame offsets:
#	182
#	13270
#	26860
#	42140
#	52052
#	66005
#	81425
#	96472
#	109530
#	123680
#
# Disc length: 1841 seconds
#
# Revision: 1
# Processed by: cddbd v1.4b42PL1 Copyright (c) Steve Scherf et al.
# Submitted via: CDex 1.30
#
DISCID=8d072f0a
DTITLE=Tim McGraw - Tim McGraw
DYEAR=1993
DGENRE=Country
TTITLE0=Welcome To The Club
TTITLE1=Two Steppin' Mind
TTITLE2=The Only thing That I Have Left
TTITLE3=You Can Take It With You (When You Go)
TTITLE4=Ain't No Angel
TTITLE5=Memory Lane
TTITLE6=Tears In The Rain
TTITLE7=What She Left Behind
TTITLE8=What Room Was The Holiday In
TTITLE9=I Keep It Under My Hat
EXTD=\nYEAR: 1993  ID3G:   2
EXTT0=
EXTT1=
EXTT2=
EXTT3=
EXTT4=
EXTT5=
EXTT6=
EXTT7=
EXTT8=
EXTT9=
PLAYORDER=
